<mxfile host="app.diagrams.net" agent="Mozilla/5.0 (Windows NT 10.0; Win64; x64) AppleWebKit/537.36 (KHTML, like Gecko) Chrome/131.0.0.0 Safari/537.36" version="24.7.16">
  <diagram name="Page-1" id="XIzL0DhM5F3Iu297xSs6">
    <mxGraphModel dx="1674" dy="772" grid="1" gridSize="10" guides="1" tooltips="1" connect="1" arrows="1" fold="1" page="1" pageScale="1" pageWidth="827" pageHeight="1169" math="0" shadow="0">
      <root>
        <mxCell id="0" />
        <mxCell id="1" parent="0" />
        <mxCell id="xmki-k6HlsVKm0--dV1x-1" value="pfSense Firewall" style="outlineConnect=0;dashed=0;verticalLabelPosition=bottom;verticalAlign=top;align=center;html=1;shape=mxgraph.aws3.shield;fillColor=#759C3E;gradientColor=none;" vertex="1" parent="1">
          <mxGeometry x="360" y="220" width="110" height="110" as="geometry" />
        </mxCell>
        <mxCell id="xmki-k6HlsVKm0--dV1x-2" value="WAN" style="html=1;verticalLabelPosition=bottom;align=center;labelBackgroundColor=#ffffff;verticalAlign=top;strokeWidth=2;strokeColor=#0080F0;shadow=0;dashed=0;shape=mxgraph.ios7.icons.globe;" vertex="1" parent="1">
          <mxGeometry x="40" y="220" width="110" height="110" as="geometry" />
        </mxCell>
        <mxCell id="xmki-k6HlsVKm0--dV1x-3" value="LAN" style="verticalLabelPosition=bottom;html=1;verticalAlign=top;align=center;strokeColor=none;fillColor=#00BEF2;shape=mxgraph.azure.computer;pointerEvents=1;" vertex="1" parent="1">
          <mxGeometry x="680" y="220" width="110" height="110" as="geometry" />
        </mxCell>
        <mxCell id="xmki-k6HlsVKm0--dV1x-10" value="" style="endArrow=classic;html=1;rounded=0;exitX=0.009;exitY=0.264;exitDx=0;exitDy=0;exitPerimeter=0;strokeColor=#00FF00;" edge="1" parent="1" source="xmki-k6HlsVKm0--dV1x-3">
          <mxGeometry width="50" height="50" relative="1" as="geometry">
            <mxPoint x="390" y="420" as="sourcePoint" />
            <mxPoint x="470" y="247" as="targetPoint" />
          </mxGeometry>
        </mxCell>
        <mxCell id="xmki-k6HlsVKm0--dV1x-13" value="Allow LAN to WAN" style="edgeLabel;html=1;align=center;verticalAlign=middle;resizable=0;points=[];" vertex="1" connectable="0" parent="xmki-k6HlsVKm0--dV1x-10">
          <mxGeometry x="-0.365" y="1" relative="1" as="geometry">
            <mxPoint x="-44" as="offset" />
          </mxGeometry>
        </mxCell>
        <mxCell id="xmki-k6HlsVKm0--dV1x-11" value="" style="endArrow=classic;html=1;rounded=0;strokeColor=#00FF00;" edge="1" parent="1">
          <mxGeometry width="50" height="50" relative="1" as="geometry">
            <mxPoint x="360" y="250" as="sourcePoint" />
            <mxPoint x="150" y="250" as="targetPoint" />
          </mxGeometry>
        </mxCell>
        <mxCell id="xmki-k6HlsVKm0--dV1x-14" value="Allow LAN to WAN" style="edgeLabel;html=1;align=center;verticalAlign=middle;resizable=0;points=[];" vertex="1" connectable="0" parent="xmki-k6HlsVKm0--dV1x-11">
          <mxGeometry x="0.0762" relative="1" as="geometry">
            <mxPoint as="offset" />
          </mxGeometry>
        </mxCell>
        <mxCell id="xmki-k6HlsVKm0--dV1x-12" value="" style="endArrow=classic;html=1;rounded=0;exitX=1;exitY=0.509;exitDx=0;exitDy=0;exitPerimeter=0;strokeColor=#D20F0F;" edge="1" parent="1" source="xmki-k6HlsVKm0--dV1x-2" target="xmki-k6HlsVKm0--dV1x-1">
          <mxGeometry width="50" height="50" relative="1" as="geometry">
            <mxPoint x="220" y="310" as="sourcePoint" />
            <mxPoint x="270" y="260" as="targetPoint" />
          </mxGeometry>
        </mxCell>
        <mxCell id="xmki-k6HlsVKm0--dV1x-15" value="Block WAN to LAN" style="edgeLabel;html=1;align=center;verticalAlign=middle;resizable=0;points=[];" vertex="1" connectable="0" parent="xmki-k6HlsVKm0--dV1x-12">
          <mxGeometry x="-0.162" y="-2" relative="1" as="geometry">
            <mxPoint as="offset" />
          </mxGeometry>
        </mxCell>
      </root>
    </mxGraphModel>
  </diagram>
</mxfile>
